<svg width="362" height="151" viewBox="0 0 362 151" fill="none" xmlns="http://www.w3.org/2000/svg">
<rect y="0.954254" width="362" height="150" fill="#121212"/>
<path d="M136.643 82.4543V69.6574H141.125C142.678 69.6574 143.855 69.9562 144.658 70.5539C145.461 71.1457 145.862 72.0158 145.862 73.1642C145.862 73.7912 145.701 74.3449 145.379 74.8253C145.057 75.3 144.608 75.6486 144.034 75.8712C144.69 76.0353 145.206 76.3664 145.581 76.8644C145.962 77.3625 146.152 77.9718 146.152 78.6925C146.152 79.923 145.76 80.8546 144.975 81.4875C144.189 82.1203 143.07 82.4425 141.617 82.4543H136.643ZM139.279 76.882V80.3361H141.538C142.159 80.3361 142.643 80.1896 142.988 79.8966C143.34 79.5978 143.516 79.1877 143.516 78.6662C143.516 77.4943 142.909 76.8996 141.696 76.882H139.279ZM139.279 75.0187H141.23C142.561 74.9953 143.226 74.465 143.226 73.4279C143.226 72.8478 143.056 72.4318 142.716 72.1798C142.382 71.922 141.852 71.7931 141.125 71.7931H139.279V75.0187ZM153.315 75.3263C152.97 75.2794 152.665 75.256 152.401 75.256C151.44 75.256 150.811 75.5812 150.512 76.2316V82.4543H147.972V72.9445H150.371L150.441 74.0783C150.951 73.2052 151.657 72.7687 152.56 72.7687C152.841 72.7687 153.104 72.8068 153.351 72.883L153.315 75.3263ZM157.227 82.4543H154.678V72.9445H157.227V82.4543ZM154.528 70.4836C154.528 70.1027 154.654 69.7892 154.906 69.5431C155.164 69.297 155.513 69.174 155.952 69.174C156.386 69.174 156.731 69.297 156.989 69.5431C157.247 69.7892 157.376 70.1027 157.376 70.4836C157.376 70.8703 157.244 71.1867 156.98 71.4328C156.723 71.6789 156.38 71.8019 155.952 71.8019C155.524 71.8019 155.179 71.6789 154.915 71.4328C154.657 71.1867 154.528 70.8703 154.528 70.4836ZM164.478 79.8263C164.478 79.5158 164.322 79.2726 164.012 79.0968C163.707 78.9152 163.215 78.7541 162.535 78.6134C160.273 78.1388 159.143 77.1779 159.143 75.7306C159.143 74.8869 159.491 74.1837 160.188 73.6212C160.892 73.0529 161.809 72.7687 162.939 72.7687C164.146 72.7687 165.11 73.0529 165.831 73.6212C166.558 74.1896 166.921 74.9279 166.921 75.8361H164.381C164.381 75.4728 164.264 75.174 164.029 74.9396C163.795 74.6994 163.429 74.5793 162.931 74.5793C162.503 74.5793 162.172 74.6759 161.938 74.8693C161.703 75.0627 161.586 75.3087 161.586 75.6076C161.586 75.8888 161.718 76.1173 161.981 76.2931C162.251 76.463 162.702 76.6125 163.335 76.7414C163.968 76.8644 164.501 77.005 164.935 77.1632C166.276 77.6554 166.947 78.508 166.947 79.7209C166.947 80.588 166.575 81.2912 165.831 81.8302C165.087 82.3634 164.126 82.63 162.948 82.63C162.151 82.63 161.442 82.4894 160.821 82.2082C160.206 81.9211 159.723 81.5314 159.371 81.0392C159.02 80.5412 158.844 80.005 158.844 79.4308H161.252C161.275 79.882 161.442 80.2277 161.753 80.4679C162.063 80.7082 162.479 80.8283 163.001 80.8283C163.487 80.8283 163.854 80.7375 164.1 80.5558C164.352 80.3683 164.478 80.1252 164.478 79.8263ZM171.271 82.4543H168.723V72.9445H171.271V82.4543ZM168.573 70.4836C168.573 70.1027 168.699 69.7892 168.951 69.5431C169.209 69.297 169.558 69.174 169.997 69.174C170.431 69.174 170.776 69.297 171.034 69.5431C171.292 69.7892 171.421 70.1027 171.421 70.4836C171.421 70.8703 171.289 71.1867 171.025 71.4328C170.768 71.6789 170.425 71.8019 169.997 71.8019C169.569 71.8019 169.224 71.6789 168.96 71.4328C168.702 71.1867 168.573 70.8703 168.573 70.4836ZM181.941 77.7873C181.941 79.3107 181.616 80.5002 180.966 81.3556C180.315 82.2052 179.407 82.63 178.241 82.63C177.21 82.63 176.387 82.2345 175.771 81.4435L175.657 82.4543H173.372V68.9543H175.912V73.797C176.498 73.1115 177.269 72.7687 178.224 72.7687C179.384 72.7687 180.292 73.1964 180.948 74.0519C181.61 74.9015 181.941 76.0998 181.941 77.6466V77.7873ZM179.401 77.6027C179.401 76.6418 179.249 75.9416 178.944 75.5021C178.64 75.0568 178.186 74.8341 177.582 74.8341C176.773 74.8341 176.217 75.1652 175.912 75.8273V79.5802C176.223 80.2482 176.785 80.5822 177.6 80.5822C178.42 80.5822 178.959 80.1779 179.217 79.3693C179.34 78.9826 179.401 78.3937 179.401 77.6027ZM187.892 82.63C186.497 82.63 185.36 82.2023 184.481 81.3468C183.608 80.4914 183.172 79.3517 183.172 77.9279V77.6818C183.172 76.7267 183.356 75.8742 183.726 75.1242C184.095 74.3683 184.616 73.7882 185.29 73.3839C185.97 72.9738 186.743 72.7687 187.61 72.7687C188.911 72.7687 189.934 73.1789 190.678 73.9992C191.428 74.8195 191.803 75.9826 191.803 77.4884V78.5255H185.747C185.829 79.1466 186.075 79.6447 186.485 80.0197C186.901 80.3947 187.426 80.5822 188.059 80.5822C189.037 80.5822 189.802 80.2277 190.353 79.5187L191.601 80.9162C191.22 81.4552 190.704 81.8771 190.054 82.1818C189.403 82.4806 188.683 82.63 187.892 82.63ZM187.602 74.8253C187.098 74.8253 186.688 74.9953 186.371 75.3351C186.061 75.675 185.861 76.1613 185.773 76.7941H189.307V76.5919C189.295 76.0294 189.143 75.5959 188.85 75.2912C188.557 74.9806 188.141 74.8253 187.602 74.8253ZM193.385 81.2062C193.385 80.8019 193.52 80.4738 193.789 80.2218C194.064 79.9699 194.407 79.8439 194.817 79.8439C195.233 79.8439 195.576 79.9699 195.846 80.2218C196.121 80.4738 196.259 80.8019 196.259 81.2062C196.259 81.6046 196.124 81.9298 195.854 82.1818C195.585 82.4279 195.239 82.5509 194.817 82.5509C194.401 82.5509 194.059 82.4279 193.789 82.1818C193.52 81.9298 193.385 81.6046 193.385 81.2062Z" fill="#FFFCFC"/>
<path d="M198.096 77.6291C198.096 76.1466 198.427 74.966 199.089 74.0871C199.757 73.2082 200.668 72.7687 201.822 72.7687C202.748 72.7687 203.513 73.1144 204.116 73.8058V68.9543H206.665V82.4543H204.371L204.248 81.4435C203.615 82.2345 202.801 82.63 201.805 82.63C200.686 82.63 199.786 82.1906 199.106 81.3117C198.433 80.4269 198.096 79.1994 198.096 77.6291ZM200.636 77.8136C200.636 78.7043 200.791 79.3869 201.102 79.8615C201.412 80.3361 201.863 80.5734 202.455 80.5734C203.24 80.5734 203.794 80.2423 204.116 79.5802V75.8273C203.8 75.1652 203.252 74.8341 202.473 74.8341C201.248 74.8341 200.636 75.8273 200.636 77.8136ZM213.011 82.63C211.616 82.63 210.479 82.2023 209.601 81.3468C208.728 80.4914 208.291 79.3517 208.291 77.9279V77.6818C208.291 76.7267 208.476 75.8742 208.845 75.1242C209.214 74.3683 209.735 73.7882 210.409 73.3839C211.089 72.9738 211.862 72.7687 212.729 72.7687C214.03 72.7687 215.053 73.1789 215.797 73.9992C216.547 74.8195 216.922 75.9826 216.922 77.4884V78.5255H210.866C210.948 79.1466 211.194 79.6447 211.604 80.0197C212.021 80.3947 212.545 80.5822 213.178 80.5822C214.156 80.5822 214.921 80.2277 215.472 79.5187L216.72 80.9162C216.339 81.4552 215.823 81.8771 215.173 82.1818C214.522 82.4806 213.802 82.63 213.011 82.63ZM212.721 74.8253C212.217 74.8253 211.807 74.9953 211.49 75.3351C211.18 75.675 210.98 76.1613 210.893 76.7941H214.426V76.5919C214.414 76.0294 214.262 75.5959 213.969 75.2912C213.676 74.9806 213.26 74.8253 212.721 74.8253ZM221.809 79.3517L223.575 72.9445H226.229L223.021 82.4543H220.596L217.388 72.9445H220.042L221.809 79.3517Z" fill="#FF0BC9"/>
</svg>
