<svg width="361" height="151" viewBox="0 0 361 151" fill="none" xmlns="http://www.w3.org/2000/svg">
<rect x="0.198486" y="0.536499" width="360" height="150" fill="white"/>
<path d="M175.104 81.0792V87.6349C175.104 88.7241 174.762 89.5854 174.079 90.2189C173.4 90.8523 172.47 91.1691 171.29 91.1691C170.128 91.1691 169.205 90.8615 168.521 90.2462C167.838 89.631 167.489 88.7856 167.475 87.7101V81.0792H169.526V87.6486C169.526 88.3003 169.681 88.7765 169.991 89.0773C170.305 89.3735 170.738 89.5216 171.29 89.5216C172.443 89.5216 173.028 88.9155 173.047 87.7032V81.0792H175.104Z" fill="#3ECE93"/>
<path d="M178.837 87.5255V91.0323H176.786V81.0792H180.669C181.416 81.0792 182.072 81.2159 182.637 81.4894C183.207 81.7628 183.645 82.1525 183.95 82.6583C184.255 83.1596 184.408 83.7316 184.408 84.3741C184.408 85.3494 184.073 86.1196 183.403 86.6847C182.738 87.2452 181.815 87.5255 180.635 87.5255H178.837ZM178.837 85.8644H180.669C181.211 85.8644 181.623 85.7368 181.906 85.4816C182.193 85.2264 182.337 84.8618 182.337 84.3878C182.337 83.9002 182.193 83.506 181.906 83.2052C181.619 82.9044 181.222 82.7495 180.717 82.7404H178.837V85.8644ZM185.823 91.0323V81.0792H188.885C189.76 81.0792 190.542 81.2775 191.23 81.674C191.923 82.0659 192.463 82.6264 192.85 83.3556C193.238 84.0802 193.431 84.9051 193.431 85.8302V86.2882C193.431 87.2133 193.24 88.0359 192.857 88.756C192.479 89.476 191.943 90.0343 191.251 90.4308C190.558 90.8273 189.776 91.0278 188.906 91.0323H185.823ZM187.874 82.7404V89.3849H188.865C189.667 89.3849 190.28 89.1228 190.704 88.5988C191.128 88.0747 191.344 87.325 191.353 86.3497V85.8234C191.353 84.8116 191.144 84.046 190.724 83.5265C190.305 83.0024 189.692 82.7404 188.885 82.7404H187.874ZM200.397 88.9816H196.802L196.118 91.0323H193.937L197.642 81.0792H199.543L203.268 91.0323H201.088L200.397 88.9816ZM197.355 87.3204H199.844L198.593 83.5948L197.355 87.3204ZM210.87 82.7404H207.821V91.0323H205.77V82.7404H202.762V81.0792H210.87V82.7404ZM218.034 86.7189H214.096V89.3849H218.718V91.0323H212.046V81.0792H218.704V82.7404H214.096V85.1124H218.034V86.7189Z" fill="#1B1B1B"/>
<path d="M225.082 88.421C225.082 88.0337 224.945 87.7374 224.672 87.5323C224.398 87.3227 223.906 87.104 223.195 86.8761C222.484 86.6437 221.921 86.4158 221.507 86.1925C220.376 85.5818 219.811 84.7592 219.811 83.7247C219.811 83.187 219.962 82.7085 220.262 82.2892C220.568 81.8654 221.003 81.535 221.568 81.298C222.138 81.061 222.776 80.9425 223.482 80.9425C224.193 80.9425 224.827 81.0724 225.383 81.3322C225.939 81.5874 226.369 81.9497 226.675 82.4191C226.984 82.8885 227.139 83.4217 227.139 84.0187H225.089C225.089 83.5629 224.945 83.2098 224.658 82.9591C224.371 82.7039 223.968 82.5763 223.448 82.5763C222.947 82.5763 222.557 82.6834 222.279 82.8976C222.001 83.1072 221.862 83.3852 221.862 83.7316C221.862 84.0551 222.024 84.3263 222.347 84.545C222.676 84.7638 223.156 84.9689 223.79 85.1603C224.956 85.5112 225.806 85.9464 226.34 86.4659C226.873 86.9855 227.139 87.6326 227.139 88.4073C227.139 89.2687 226.814 89.9454 226.162 90.4376C225.51 90.9253 224.633 91.1691 223.53 91.1691C222.764 91.1691 222.067 91.0301 221.438 90.7521C220.809 90.4695 220.329 90.0844 219.996 89.5968C219.668 89.1092 219.504 88.5441 219.504 87.9015H221.561C221.561 88.9998 222.218 89.549 223.53 89.549C224.018 89.549 224.398 89.451 224.672 89.255C224.945 89.0545 225.082 88.7765 225.082 88.421Z" fill="#EAB300"/>
<path d="M228.507 90.0616C228.507 89.7472 228.611 89.492 228.821 89.296C229.035 89.1001 229.302 89.0021 229.621 89.0021C229.944 89.0021 230.211 89.1001 230.421 89.296C230.635 89.492 230.742 89.7472 230.742 90.0616C230.742 90.3715 230.637 90.6245 230.427 90.8204C230.218 91.0118 229.949 91.1075 229.621 91.1075C229.297 91.1075 229.031 91.0118 228.821 90.8204C228.611 90.6245 228.507 90.3715 228.507 90.0616Z" fill="#FF461D"/>
<path d="M137.033 68.5845C137.398 68.5845 137.694 68.4842 137.922 68.2837C138.15 68.0832 138.268 67.8166 138.278 67.4839H140.13C140.126 67.9852 139.989 68.4455 139.72 68.8647C139.451 69.2795 139.082 69.603 138.613 69.8354C138.148 70.0633 137.633 70.1772 137.068 70.1772C136.01 70.1772 135.176 69.8423 134.566 69.1724C133.955 68.4979 133.65 67.5682 133.65 66.3833V66.2534C133.65 65.1141 133.953 64.2049 134.559 63.5259C135.165 62.8468 135.997 62.5073 137.054 62.5073C137.979 62.5073 138.72 62.7716 139.276 63.3003C139.836 63.8244 140.121 64.5239 140.13 65.3989H138.278C138.268 65.0161 138.15 64.7062 137.922 64.4692C137.694 64.2277 137.393 64.1069 137.02 64.1069C136.559 64.1069 136.211 64.2756 135.974 64.6128C135.741 64.9455 135.625 65.4878 135.625 66.2397V66.4448C135.625 67.2059 135.741 67.7528 135.974 68.0854C136.206 68.4181 136.559 68.5845 137.033 68.5845ZM145.414 64.4966C145.145 64.4601 144.908 64.4419 144.703 64.4419C143.956 64.4419 143.466 64.6948 143.234 65.2007V70.0405H141.258V62.644H143.124L143.179 63.5259C143.575 62.8468 144.125 62.5073 144.826 62.5073C145.045 62.5073 145.25 62.5369 145.442 62.5962L145.414 64.4966ZM149.256 67.2446L150.623 62.644H152.742L149.769 71.189L149.605 71.5786C149.163 72.5448 148.434 73.0278 147.417 73.0278C147.13 73.0278 146.838 72.9845 146.542 72.8979V71.4009L146.843 71.4077C147.217 71.4077 147.495 71.3507 147.677 71.2368C147.864 71.1229 148.01 70.9338 148.115 70.6694L148.347 70.061L145.756 62.644H147.882L149.256 67.2446ZM160.18 66.4106C160.18 67.55 159.92 68.4637 159.401 69.1519C158.886 69.8354 158.188 70.1772 157.309 70.1772C156.561 70.1772 155.958 69.9175 155.497 69.3979V72.8843H153.522V62.644H155.354L155.422 63.3687C155.901 62.7944 156.525 62.5073 157.295 62.5073C158.207 62.5073 158.915 62.8446 159.421 63.519C159.927 64.1935 160.18 65.1232 160.18 66.3081V66.4106ZM158.204 66.2671C158.204 65.5789 158.081 65.048 157.835 64.6743C157.594 64.3006 157.24 64.1138 156.776 64.1138C156.156 64.1138 155.73 64.3507 155.497 64.8247V67.853C155.739 68.3407 156.17 68.5845 156.789 68.5845C157.733 68.5845 158.204 67.812 158.204 66.2671ZM163.776 60.8257V62.644H165.04V64.0933H163.776V67.7847C163.776 68.0581 163.828 68.2541 163.933 68.3726C164.038 68.491 164.238 68.5503 164.534 68.5503C164.753 68.5503 164.947 68.5343 165.115 68.5024V69.9995C164.728 70.118 164.329 70.1772 163.919 70.1772C162.534 70.1772 161.827 69.4777 161.8 68.0786V64.0933H160.72V62.644H161.8V60.8257H163.776ZM165.628 66.2739C165.628 65.5402 165.769 64.8862 166.052 64.312C166.335 63.7378 166.74 63.2935 167.269 62.979C167.802 62.6646 168.42 62.5073 169.121 62.5073C170.119 62.5073 170.933 62.8127 171.562 63.4233C172.195 64.034 172.548 64.8634 172.621 65.9116L172.635 66.4175C172.635 67.5522 172.318 68.4637 171.685 69.1519C171.051 69.8354 170.201 70.1772 169.135 70.1772C168.069 70.1772 167.216 69.8354 166.578 69.1519C165.945 68.4683 165.628 67.5386 165.628 66.3628V66.2739ZM167.604 66.4175C167.604 67.1193 167.736 67.6571 168 68.0308C168.265 68.3999 168.643 68.5845 169.135 68.5845C169.614 68.5845 169.987 68.4022 170.256 68.0376C170.525 67.6685 170.659 67.0806 170.659 66.2739C170.659 65.5858 170.525 65.0526 170.256 64.6743C169.987 64.2961 169.609 64.1069 169.121 64.1069C168.638 64.1069 168.265 64.2961 168 64.6743C167.736 65.048 167.604 65.6291 167.604 66.4175ZM173.544 66.2739C173.544 65.5402 173.685 64.8862 173.968 64.312C174.251 63.7378 174.656 63.2935 175.185 62.979C175.718 62.6646 176.336 62.5073 177.037 62.5073C178.035 62.5073 178.849 62.8127 179.478 63.4233C180.111 64.034 180.464 64.8634 180.537 65.9116L180.551 66.4175C180.551 67.5522 180.234 68.4637 179.601 69.1519C178.967 69.8354 178.117 70.1772 177.051 70.1772C175.985 70.1772 175.132 69.8354 174.494 69.1519C173.861 68.4683 173.544 67.5386 173.544 66.3628V66.2739ZM175.52 66.4175C175.52 67.1193 175.652 67.6571 175.916 68.0308C176.181 68.3999 176.559 68.5845 177.051 68.5845C177.53 68.5845 177.903 68.4022 178.172 68.0376C178.441 67.6685 178.575 67.0806 178.575 66.2739C178.575 65.5858 178.441 65.0526 178.172 64.6743C177.903 64.2961 177.525 64.1069 177.037 64.1069C176.554 64.1069 176.181 64.2961 175.916 64.6743C175.652 65.048 175.52 65.6291 175.52 66.4175Z" fill="#291A1A"/>
<rect x="118.266" y="73.1094" width="123.866" height="2.85405" fill="#EAB300"/>
</svg>
