<svg width="402" height="277" viewBox="0 0 402 277" fill="none" xmlns="http://www.w3.org/2000/svg">
<rect width="402" height="277" fill="#238636"/>
<path d="M157.091 135.188C156.972 134.773 156.804 134.406 156.588 134.088C156.372 133.764 156.108 133.491 155.795 133.27C155.489 133.043 155.136 132.869 154.739 132.75C154.347 132.631 153.912 132.571 153.435 132.571C152.543 132.571 151.759 132.793 151.082 133.236C150.412 133.679 149.889 134.324 149.514 135.17C149.139 136.011 148.952 137.04 148.952 138.256C148.952 139.472 149.136 140.506 149.506 141.358C149.875 142.21 150.398 142.861 151.074 143.31C151.75 143.753 152.548 143.974 153.469 143.974C154.304 143.974 155.017 143.827 155.608 143.531C156.205 143.23 156.659 142.807 156.972 142.261C157.29 141.716 157.449 141.071 157.449 140.327L158.199 140.438H153.699V137.659H161.003V139.858C161.003 141.392 160.679 142.71 160.031 143.812C159.384 144.909 158.491 145.756 157.355 146.352C156.219 146.943 154.918 147.239 153.452 147.239C151.815 147.239 150.378 146.878 149.139 146.156C147.901 145.429 146.935 144.398 146.241 143.062C145.554 141.722 145.21 140.131 145.21 138.29C145.21 136.875 145.415 135.614 145.824 134.506C146.239 133.392 146.818 132.449 147.562 131.676C148.307 130.903 149.173 130.315 150.162 129.912C151.151 129.509 152.222 129.307 153.375 129.307C154.364 129.307 155.284 129.452 156.136 129.741C156.989 130.026 157.744 130.429 158.403 130.952C159.068 131.474 159.611 132.097 160.031 132.818C160.452 133.534 160.722 134.324 160.841 135.188H157.091ZM163.775 147V129.545H175.536V132.588H167.465V136.747H174.931V139.79H167.465V143.957H175.57V147H163.775ZM177.805 132.588V129.545H192.141V132.588H186.797V147H183.149V132.588H177.805ZM195.377 147H191.423L197.448 129.545H202.204L208.221 147H204.266L199.894 133.534H199.758L195.377 147ZM195.13 140.139H204.471V143.02H195.13V140.139ZM217.31 129.545H220.958V141.716C220.958 142.841 220.705 143.818 220.2 144.648C219.7 145.477 219.004 146.116 218.112 146.565C217.219 147.014 216.183 147.239 215.001 147.239C213.95 147.239 212.995 147.054 212.137 146.685C211.285 146.31 210.609 145.741 210.109 144.98C209.609 144.213 209.362 143.25 209.367 142.091H213.04C213.052 142.551 213.146 142.946 213.322 143.276C213.504 143.599 213.751 143.849 214.063 144.026C214.381 144.196 214.756 144.281 215.188 144.281C215.643 144.281 216.026 144.185 216.339 143.991C216.657 143.793 216.898 143.503 217.063 143.122C217.228 142.741 217.31 142.273 217.31 141.716V129.545ZM240.049 138.273C240.049 140.176 239.688 141.795 238.967 143.131C238.251 144.466 237.273 145.486 236.035 146.19C234.802 146.889 233.415 147.239 231.876 147.239C230.325 147.239 228.933 146.886 227.7 146.182C226.467 145.477 225.492 144.457 224.776 143.122C224.06 141.787 223.702 140.17 223.702 138.273C223.702 136.369 224.06 134.75 224.776 133.415C225.492 132.08 226.467 131.062 227.7 130.364C228.933 129.659 230.325 129.307 231.876 129.307C233.415 129.307 234.802 129.659 236.035 130.364C237.273 131.062 238.251 132.08 238.967 133.415C239.688 134.75 240.049 136.369 240.049 138.273ZM236.308 138.273C236.308 137.04 236.123 136 235.754 135.153C235.39 134.307 234.876 133.665 234.211 133.227C233.546 132.79 232.768 132.571 231.876 132.571C230.984 132.571 230.205 132.79 229.54 133.227C228.876 133.665 228.359 134.307 227.989 135.153C227.626 136 227.444 137.04 227.444 138.273C227.444 139.506 227.626 140.545 227.989 141.392C228.359 142.239 228.876 142.881 229.54 143.318C230.205 143.756 230.984 143.974 231.876 143.974C232.768 143.974 233.546 143.756 234.211 143.318C234.876 142.881 235.39 142.239 235.754 141.392C236.123 140.545 236.308 139.506 236.308 138.273ZM242.783 147V129.545H249.771C251.055 129.545 252.126 129.736 252.984 130.116C253.842 130.497 254.487 131.026 254.919 131.702C255.351 132.372 255.567 133.145 255.567 134.02C255.567 134.702 255.43 135.301 255.158 135.818C254.885 136.33 254.51 136.75 254.033 137.08C253.561 137.403 253.021 137.634 252.413 137.77V137.94C253.078 137.969 253.7 138.156 254.28 138.503C254.865 138.849 255.339 139.335 255.703 139.96C256.067 140.58 256.249 141.318 256.249 142.176C256.249 143.102 256.018 143.929 255.558 144.656C255.104 145.378 254.43 145.949 253.538 146.369C252.646 146.79 251.547 147 250.24 147H242.783ZM246.473 143.983H249.482C250.51 143.983 251.26 143.787 251.732 143.395C252.203 142.997 252.439 142.469 252.439 141.81C252.439 141.327 252.322 140.901 252.089 140.531C251.857 140.162 251.524 139.872 251.092 139.662C250.666 139.452 250.158 139.347 249.567 139.347H246.473V143.983ZM246.473 136.849H249.209C249.714 136.849 250.163 136.761 250.555 136.585C250.953 136.403 251.266 136.148 251.493 135.818C251.726 135.489 251.842 135.094 251.842 134.634C251.842 134.003 251.618 133.494 251.169 133.108C250.726 132.722 250.095 132.528 249.277 132.528H246.473V136.849Z" fill="#FCFCFC"/>
</svg>
