<svg width="257" height="150" viewBox="0 0 257 150" fill="none" xmlns="http://www.w3.org/2000/svg">
<rect width="257" height="150" fill="#C4C6FF" fill-opacity="0.65"/>
<path d="M70.5563 65.7856L70.9989 64.0618L63.9772 63.6981H58.5345C56.3622 63.4071 56.5448 65.2954 56.9077 66.2759L57.8407 69.8183C57.9483 70.3349 58.3431 71.8742 59.0608 73.8985C59.2905 75.0625 59.8344 75.5221 60.0776 75.6065H68.439L69.0969 73.0287H66.8959H62.8049C61.092 73.1932 60.4883 72.4225 60.4006 72.0166L60.0776 70.4509C59.942 70.0239 59.5489 68.7714 59.0608 67.1773C58.7354 66.0134 59.6031 65.7645 60.0776 65.7856H70.5563Z" fill="#514D03"/>
<path d="M52.5026 65.0271C47.5552 66.3808 46.8048 63.6618 47.048 62.1331H52.5026C53.7371 61.5511 54.4764 63.0187 54.6917 63.8252L59.1416 76.9197H61.0555H65.1465H69.4169L70.1466 74.8796L71.3308 70.072C71.4824 69.471 72.0773 67.3803 73.2448 63.8252C74.9194 63.7367 75.0909 65.549 74.9673 66.4662L74.3333 68.9966C73.9386 70.2354 72.8763 73.7726 71.7854 78.0109C71.3452 79.5544 70.5094 80.0984 70.1466 80.1775H64.5962C63.3243 80.2144 60.4526 80.266 59.1416 80.1775C57.9071 80.5697 57.2316 79.2971 57.0482 78.6118L55.6845 74.8796C55.4453 73.9571 54.474 70.6951 52.5026 65.0271Z" fill="#FFA500"/>
<path d="M61.8429 84.9311C61.8429 86.5032 60.8789 87.7777 59.6898 87.7777C58.5006 87.7777 57.5366 86.5032 57.5366 84.9311C57.5366 83.3589 58.5006 82.0845 59.6898 82.0845C60.8789 82.0845 61.8429 83.3589 61.8429 84.9311ZM58.6789 84.9311C58.6789 85.6692 59.1315 86.2676 59.6898 86.2676C60.2481 86.2676 60.7007 85.6692 60.7007 84.9311C60.7007 84.193 60.2481 83.5946 59.6898 83.5946C59.1315 83.5946 58.6789 84.193 58.6789 84.9311Z" fill="#514D03"/>
<path d="M71.005 84.9311C71.005 86.5032 70.041 87.7777 68.8519 87.7777C67.6627 87.7777 66.6987 86.5032 66.6987 84.9311C66.6987 83.3589 67.6627 82.0845 68.8519 82.0845C70.041 82.0845 71.005 83.3589 71.005 84.9311ZM67.841 84.9311C67.841 85.6692 68.2936 86.2676 68.8519 86.2676C69.4102 86.2676 69.8628 85.6692 69.8628 84.9311C69.8628 84.193 69.4102 83.5946 68.8519 83.5946C68.2936 83.5946 67.841 84.193 67.841 84.9311Z" fill="#514D03"/>
<rect x="42.5831" y="69.6226" width="8.08631" height="1.26517" rx="0.43747" fill="#514D03"/>
<rect x="40" y="69.6226" width="1.43544" height="1.26517" rx="0.43747" fill="#514D03"/>
<rect x="45.1676" y="74.082" width="6.50733" height="1.26516" rx="0.43747" fill="#514D03"/>
<rect x="42.5845" y="74.082" width="1.43544" height="1.26516" rx="0.43747" fill="#514D03"/>
<rect x="46.4572" y="78.5425" width="6.50733" height="1.26516" rx="0.43747" fill="#514D03"/>
<rect x="43.874" y="78.5425" width="1.43544" height="1.26516" rx="0.43747" fill="#514D03"/>
<path d="M85.64 66.34C86.76 66.34 87.7567 66.5633 88.63 67.01C89.51 67.45 90.22 68.06 90.76 68.84C91.3 69.6133 91.6233 70.4967 91.73 71.49H88.16C88.08 71.01 87.9267 70.5933 87.7 70.24C87.48 69.88 87.1867 69.6 86.82 69.4C86.46 69.2 86.03 69.1 85.53 69.1C84.95 69.1 84.4433 69.2467 84.01 69.54C83.5767 69.8267 83.24 70.3067 83 70.98C82.7667 71.6467 82.65 72.54 82.65 73.66C82.65 75.3667 82.91 76.59 83.43 77.33C83.9567 78.07 84.6567 78.44 85.53 78.44C86.03 78.44 86.46 78.32 86.82 78.08C87.1867 77.84 87.48 77.52 87.7 77.12C87.9267 76.7133 88.08 76.2733 88.16 75.8H91.73C91.6367 76.5133 91.4667 77.1967 91.22 77.85C90.98 78.4967 90.63 79.0733 90.17 79.58C89.71 80.0867 89.11 80.4833 88.37 80.77C87.6367 81.0567 86.7267 81.2 85.64 81.2C84.2667 81.2 83.0767 80.88 82.07 80.24C81.0633 79.5933 80.2833 78.7 79.73 77.56C79.1767 76.42 78.9 75.1033 78.9 73.61C78.9 72.1233 79.1733 70.8367 79.72 69.75C80.2667 68.6633 81.0433 67.8233 82.05 67.23C83.0633 66.6367 84.26 66.34 85.64 66.34ZM98.4589 81.2C98.0122 81.2 97.5589 81.1267 97.0989 80.98C96.6389 80.8333 96.2156 80.62 95.8289 80.34C95.4422 80.0533 95.1289 79.7067 94.8889 79.3C94.6556 78.8867 94.5389 78.4133 94.5389 77.88V70.66H97.9489V77.42C97.9489 77.8067 98.0822 78.13 98.3489 78.39C98.6156 78.6433 98.9989 78.77 99.4989 78.77C99.9789 78.77 100.359 78.6467 100.639 78.4C100.919 78.1467 101.059 77.8133 101.059 77.4V70.66H104.439V81H101.899L101.499 78.91C101.372 79.5567 101.139 80.0467 100.799 80.38C100.459 80.7067 100.076 80.9233 99.6489 81.03C99.2289 81.1433 98.8322 81.2 98.4589 81.2ZM112.043 70.46C112.956 70.46 113.74 70.6533 114.393 71.04C115.046 71.42 115.55 71.93 115.903 72.57C116.263 73.2033 116.46 73.8967 116.493 74.65H113.693C113.66 74.4167 113.583 74.1733 113.463 73.92C113.35 73.6667 113.18 73.4533 112.953 73.28C112.726 73.1 112.43 73.01 112.063 73.01C111.47 73.01 110.99 73.2467 110.623 73.72C110.263 74.1867 110.083 74.8933 110.083 75.84C110.083 76.7733 110.27 77.5033 110.643 78.03C111.016 78.5567 111.513 78.82 112.133 78.82C112.493 78.82 112.783 78.7233 113.003 78.53C113.23 78.3367 113.4 78.1133 113.513 77.86C113.626 77.6067 113.7 77.3833 113.733 77.19H116.443C116.423 77.9167 116.23 78.5833 115.863 79.19C115.503 79.7967 115 80.2833 114.353 80.65C113.706 81.0167 112.936 81.2 112.043 81.2C111.07 81.2 110.196 80.9833 109.423 80.55C108.656 80.11 108.05 79.49 107.603 78.69C107.156 77.89 106.933 76.9533 106.933 75.88C106.933 74.8067 107.15 73.8667 107.583 73.06C108.016 72.2467 108.616 71.61 109.383 71.15C110.156 70.69 111.043 70.46 112.043 70.46ZM122.857 81.2C122.41 81.2 121.957 81.1267 121.497 80.98C121.037 80.8333 120.613 80.62 120.227 80.34C119.84 80.0533 119.527 79.7067 119.287 79.3C119.053 78.8867 118.937 78.4133 118.937 77.88V70.66H122.347V77.42C122.347 77.8067 122.48 78.13 122.747 78.39C123.013 78.6433 123.397 78.77 123.897 78.77C124.377 78.77 124.757 78.6467 125.037 78.4C125.317 78.1467 125.457 77.8133 125.457 77.4V70.66H128.837V81H126.297L125.897 78.91C125.77 79.5567 125.537 80.0467 125.197 80.38C124.857 80.7067 124.473 80.9233 124.047 81.03C123.627 81.1433 123.23 81.2 122.857 81.2ZM131.89 81V70.66H135.23V72.11C135.557 71.6567 135.993 71.27 136.54 70.95C137.087 70.6233 137.76 70.46 138.56 70.46C138.907 70.46 139.26 70.5233 139.62 70.65C139.98 70.77 140.317 70.9533 140.63 71.2C140.95 71.44 141.22 71.74 141.44 72.1C141.773 71.6467 142.21 71.26 142.75 70.94C143.29 70.62 143.893 70.46 144.56 70.46C144.947 70.46 145.34 70.53 145.74 70.67C146.14 70.8033 146.503 71.0167 146.83 71.31C147.163 71.5967 147.43 71.9733 147.63 72.44C147.837 72.9067 147.94 73.4767 147.94 74.15V81H144.53V74.6C144.53 74.2733 144.457 74.01 144.31 73.81C144.17 73.6033 143.99 73.4533 143.77 73.36C143.55 73.26 143.32 73.21 143.08 73.21C142.853 73.21 142.627 73.2567 142.4 73.35C142.173 73.4433 141.983 73.5867 141.83 73.78C141.677 73.9733 141.6 74.22 141.6 74.52V81H138.2V74.47C138.2 74.1967 138.127 73.9667 137.98 73.78C137.84 73.5933 137.66 73.4533 137.44 73.36C137.227 73.26 137.003 73.21 136.77 73.21C136.543 73.21 136.313 73.26 136.08 73.36C135.853 73.4533 135.663 73.5967 135.51 73.79C135.363 73.9833 135.29 74.2267 135.29 74.52V81H131.89ZM154.344 70.66V81H151.094V70.66H154.344ZM154.354 66.54V69.5H151.084V66.54H154.354ZM161.886 81.2C161.166 81.2 160.463 81.08 159.776 80.84C159.089 80.6 158.503 80.2167 158.016 79.69C157.529 79.1633 157.216 78.4767 157.076 77.63H159.996C160.083 77.9833 160.239 78.2533 160.466 78.44C160.693 78.6267 160.936 78.7533 161.196 78.82C161.456 78.8867 161.679 78.92 161.866 78.92C162.359 78.92 162.759 78.85 163.066 78.71C163.373 78.57 163.526 78.3567 163.526 78.07C163.526 77.83 163.429 77.6433 163.236 77.51C163.049 77.37 162.723 77.26 162.256 77.18L160.576 76.87C159.629 76.69 158.863 76.36 158.276 75.88C157.696 75.3933 157.403 74.7067 157.396 73.82C157.389 73.1867 157.559 72.6167 157.906 72.11C158.253 71.6033 158.763 71.2033 159.436 70.91C160.109 70.61 160.936 70.46 161.916 70.46C163.256 70.46 164.323 70.7533 165.116 71.34C165.909 71.9267 166.309 72.7367 166.316 73.77H163.516C163.443 73.4167 163.253 73.15 162.946 72.97C162.646 72.7833 162.286 72.69 161.866 72.69C161.439 72.69 161.079 72.7633 160.786 72.91C160.499 73.05 160.356 73.2633 160.356 73.55C160.356 73.77 160.483 73.9467 160.736 74.08C160.989 74.2133 161.393 74.3333 161.946 74.44L163.456 74.75C164.076 74.9033 164.579 75.11 164.966 75.37C165.353 75.6233 165.649 75.9 165.856 76.2C166.069 76.5 166.216 76.8 166.296 77.1C166.376 77.3933 166.416 77.6533 166.416 77.88C166.416 78.5933 166.219 79.1967 165.826 79.69C165.433 80.1833 164.893 80.56 164.206 80.82C163.526 81.0733 162.753 81.2 161.886 81.2Z" fill="#514D03"/>
<path d="M169.481 66.54H172.891V78.17H178.921V81H169.471L169.481 66.54ZM185.618 81.2C185.172 81.2 184.718 81.1267 184.258 80.98C183.798 80.8333 183.375 80.62 182.988 80.34C182.602 80.0533 182.288 79.7067 182.048 79.3C181.815 78.8867 181.698 78.4133 181.698 77.88V70.66H185.108V77.42C185.108 77.8067 185.242 78.13 185.508 78.39C185.775 78.6433 186.158 78.77 186.658 78.77C187.138 78.77 187.518 78.6467 187.798 78.4C188.078 78.1467 188.218 77.8133 188.218 77.4V70.66H191.598V81H189.058L188.658 78.91C188.532 79.5567 188.298 80.0467 187.958 80.38C187.618 80.7067 187.235 80.9233 186.808 81.03C186.388 81.1433 185.992 81.2 185.618 81.2ZM198.902 81.2C198.182 81.2 197.479 81.08 196.792 80.84C196.106 80.6 195.519 80.2167 195.032 79.69C194.546 79.1633 194.232 78.4767 194.092 77.63H197.012C197.099 77.9833 197.256 78.2533 197.482 78.44C197.709 78.6267 197.952 78.7533 198.212 78.82C198.472 78.8867 198.696 78.92 198.882 78.92C199.376 78.92 199.776 78.85 200.082 78.71C200.389 78.57 200.542 78.3567 200.542 78.07C200.542 77.83 200.446 77.6433 200.252 77.51C200.066 77.37 199.739 77.26 199.272 77.18L197.592 76.87C196.646 76.69 195.879 76.36 195.292 75.88C194.712 75.3933 194.419 74.7067 194.412 73.82C194.406 73.1867 194.576 72.6167 194.922 72.11C195.269 71.6033 195.779 71.2033 196.452 70.91C197.126 70.61 197.952 70.46 198.932 70.46C200.272 70.46 201.339 70.7533 202.132 71.34C202.926 71.9267 203.326 72.7367 203.332 73.77H200.532C200.459 73.4167 200.269 73.15 199.962 72.97C199.662 72.7833 199.302 72.69 198.882 72.69C198.456 72.69 198.096 72.7633 197.802 72.91C197.516 73.05 197.372 73.2633 197.372 73.55C197.372 73.77 197.499 73.9467 197.752 74.08C198.006 74.2133 198.409 74.3333 198.962 74.44L200.472 74.75C201.092 74.9033 201.596 75.11 201.982 75.37C202.369 75.6233 202.666 75.9 202.872 76.2C203.086 76.5 203.232 76.8 203.312 77.1C203.392 77.3933 203.432 77.6533 203.432 77.88C203.432 78.5933 203.236 79.1967 202.842 79.69C202.449 80.1833 201.909 80.56 201.222 80.82C200.542 81.0733 199.769 81.2 198.902 81.2ZM206.138 81V66.14H209.528V72.14C209.688 71.92 209.884 71.6933 210.118 71.46C210.358 71.2267 210.658 71.03 211.018 70.87C211.378 70.71 211.831 70.63 212.378 70.63C213.031 70.63 213.631 70.76 214.178 71.02C214.724 71.28 215.161 71.66 215.488 72.16C215.821 72.66 215.988 73.2733 215.988 74V81H212.578V74.47C212.578 74.0633 212.428 73.7567 212.128 73.55C211.828 73.3367 211.484 73.23 211.098 73.23C210.844 73.23 210.598 73.28 210.358 73.38C210.118 73.48 209.921 73.6267 209.768 73.82C209.614 74.0133 209.538 74.25 209.538 74.53V81H206.138Z" fill="#FFA500"/>
</svg>
