<svg width="303" height="150" viewBox="0 0 303 150" fill="none" xmlns="http://www.w3.org/2000/svg">
<rect width="303" height="150" fill="#FFF2C4"/>
<path d="M93.5563 65.7856L93.9989 64.0618L86.9772 63.6981H81.5345C79.3622 63.4071 79.5448 65.2954 79.9077 66.2759L80.8407 69.8183C80.9483 70.3349 81.3431 71.8742 82.0608 73.8985C82.2905 75.0625 82.8344 75.5221 83.0776 75.6065H91.439L92.0969 73.0287H89.8959H85.8049C84.092 73.1932 83.4883 72.4225 83.4006 72.0166L83.0776 70.4509C82.942 70.0239 82.5489 68.7714 82.0608 67.1773C81.7354 66.0134 82.6031 65.7645 83.0776 65.7856H93.5563Z" fill="#514D03"/>
<path d="M75.5026 65.0271C70.5552 66.3808 69.8048 63.6618 70.048 62.1331H75.5026C76.7371 61.5511 77.4764 63.0187 77.6917 63.8252L82.1416 76.9197H84.0555H88.1465H92.4169L93.1466 74.8796L94.3308 70.072C94.4824 69.471 95.0773 67.3803 96.2448 63.8252C97.9194 63.7367 98.0909 65.549 97.9673 66.4662L97.3333 68.9966C96.9386 70.2354 95.8763 73.7726 94.7854 78.0109C94.3452 79.5544 93.5094 80.0984 93.1466 80.1775H87.5962C86.3243 80.2144 83.4526 80.266 82.1416 80.1775C80.9071 80.5697 80.2316 79.2971 80.0482 78.6118L78.6845 74.8796C78.4453 73.9571 77.474 70.6951 75.5026 65.0271Z" fill="#FFA500"/>
<path d="M84.8429 84.9311C84.8429 86.5032 83.8789 87.7777 82.6898 87.7777C81.5006 87.7777 80.5366 86.5032 80.5366 84.9311C80.5366 83.3589 81.5006 82.0845 82.6898 82.0845C83.8789 82.0845 84.8429 83.3589 84.8429 84.9311ZM81.6789 84.9311C81.6789 85.6692 82.1315 86.2676 82.6898 86.2676C83.2481 86.2676 83.7007 85.6692 83.7007 84.9311C83.7007 84.193 83.2481 83.5946 82.6898 83.5946C82.1315 83.5946 81.6789 84.193 81.6789 84.9311Z" fill="#514D03"/>
<path d="M94.005 84.9311C94.005 86.5032 93.041 87.7777 91.8519 87.7777C90.6627 87.7777 89.6987 86.5032 89.6987 84.9311C89.6987 83.3589 90.6627 82.0845 91.8519 82.0845C93.041 82.0845 94.005 83.3589 94.005 84.9311ZM90.841 84.9311C90.841 85.6692 91.2936 86.2676 91.8519 86.2676C92.4102 86.2676 92.8628 85.6692 92.8628 84.9311C92.8628 84.193 92.4102 83.5946 91.8519 83.5946C91.2936 83.5946 90.841 84.193 90.841 84.9311Z" fill="#514D03"/>
<rect x="65.5831" y="69.6226" width="8.08631" height="1.26517" rx="0.43747" fill="#514D03"/>
<rect x="63" y="69.6226" width="1.43544" height="1.26517" rx="0.43747" fill="#514D03"/>
<rect x="68.1676" y="74.082" width="6.50733" height="1.26516" rx="0.43747" fill="#514D03"/>
<rect x="65.5845" y="74.082" width="1.43544" height="1.26516" rx="0.43747" fill="#514D03"/>
<rect x="69.4572" y="78.5425" width="6.50733" height="1.26516" rx="0.43747" fill="#514D03"/>
<rect x="66.874" y="78.5425" width="1.43544" height="1.26516" rx="0.43747" fill="#514D03"/>
<path d="M108.64 66.34C109.76 66.34 110.757 66.5633 111.63 67.01C112.51 67.45 113.22 68.06 113.76 68.84C114.3 69.6133 114.623 70.4967 114.73 71.49H111.16C111.08 71.01 110.927 70.5933 110.7 70.24C110.48 69.88 110.187 69.6 109.82 69.4C109.46 69.2 109.03 69.1 108.53 69.1C107.95 69.1 107.443 69.2467 107.01 69.54C106.577 69.8267 106.24 70.3067 106 70.98C105.767 71.6467 105.65 72.54 105.65 73.66C105.65 75.3667 105.91 76.59 106.43 77.33C106.957 78.07 107.657 78.44 108.53 78.44C109.03 78.44 109.46 78.32 109.82 78.08C110.187 77.84 110.48 77.52 110.7 77.12C110.927 76.7133 111.08 76.2733 111.16 75.8H114.73C114.637 76.5133 114.467 77.1967 114.22 77.85C113.98 78.4967 113.63 79.0733 113.17 79.58C112.71 80.0867 112.11 80.4833 111.37 80.77C110.637 81.0567 109.727 81.2 108.64 81.2C107.267 81.2 106.077 80.88 105.07 80.24C104.063 79.5933 103.283 78.7 102.73 77.56C102.177 76.42 101.9 75.1033 101.9 73.61C101.9 72.1233 102.173 70.8367 102.72 69.75C103.267 68.6633 104.043 67.8233 105.05 67.23C106.063 66.6367 107.26 66.34 108.64 66.34ZM121.459 81.2C121.012 81.2 120.559 81.1267 120.099 80.98C119.639 80.8333 119.216 80.62 118.829 80.34C118.442 80.0533 118.129 79.7067 117.889 79.3C117.656 78.8867 117.539 78.4133 117.539 77.88V70.66H120.949V77.42C120.949 77.8067 121.082 78.13 121.349 78.39C121.616 78.6433 121.999 78.77 122.499 78.77C122.979 78.77 123.359 78.6467 123.639 78.4C123.919 78.1467 124.059 77.8133 124.059 77.4V70.66H127.439V81H124.899L124.499 78.91C124.372 79.5567 124.139 80.0467 123.799 80.38C123.459 80.7067 123.076 80.9233 122.649 81.03C122.229 81.1433 121.832 81.2 121.459 81.2ZM135.043 70.46C135.956 70.46 136.74 70.6533 137.393 71.04C138.046 71.42 138.55 71.93 138.903 72.57C139.263 73.2033 139.46 73.8967 139.493 74.65H136.693C136.66 74.4167 136.583 74.1733 136.463 73.92C136.35 73.6667 136.18 73.4533 135.953 73.28C135.726 73.1 135.43 73.01 135.063 73.01C134.47 73.01 133.99 73.2467 133.623 73.72C133.263 74.1867 133.083 74.8933 133.083 75.84C133.083 76.7733 133.27 77.5033 133.643 78.03C134.016 78.5567 134.513 78.82 135.133 78.82C135.493 78.82 135.783 78.7233 136.003 78.53C136.23 78.3367 136.4 78.1133 136.513 77.86C136.626 77.6067 136.7 77.3833 136.733 77.19H139.443C139.423 77.9167 139.23 78.5833 138.863 79.19C138.503 79.7967 138 80.2833 137.353 80.65C136.706 81.0167 135.936 81.2 135.043 81.2C134.07 81.2 133.196 80.9833 132.423 80.55C131.656 80.11 131.05 79.49 130.603 78.69C130.156 77.89 129.933 76.9533 129.933 75.88C129.933 74.8067 130.15 73.8667 130.583 73.06C131.016 72.2467 131.616 71.61 132.383 71.15C133.156 70.69 134.043 70.46 135.043 70.46ZM145.857 81.2C145.41 81.2 144.957 81.1267 144.497 80.98C144.037 80.8333 143.613 80.62 143.227 80.34C142.84 80.0533 142.527 79.7067 142.287 79.3C142.053 78.8867 141.937 78.4133 141.937 77.88V70.66H145.347V77.42C145.347 77.8067 145.48 78.13 145.747 78.39C146.013 78.6433 146.397 78.77 146.897 78.77C147.377 78.77 147.757 78.6467 148.037 78.4C148.317 78.1467 148.457 77.8133 148.457 77.4V70.66H151.837V81H149.297L148.897 78.91C148.77 79.5567 148.537 80.0467 148.197 80.38C147.857 80.7067 147.473 80.9233 147.047 81.03C146.627 81.1433 146.23 81.2 145.857 81.2ZM154.89 81V70.66H158.23V72.11C158.557 71.6567 158.993 71.27 159.54 70.95C160.087 70.6233 160.76 70.46 161.56 70.46C161.907 70.46 162.26 70.5233 162.62 70.65C162.98 70.77 163.317 70.9533 163.63 71.2C163.95 71.44 164.22 71.74 164.44 72.1C164.773 71.6467 165.21 71.26 165.75 70.94C166.29 70.62 166.893 70.46 167.56 70.46C167.947 70.46 168.34 70.53 168.74 70.67C169.14 70.8033 169.503 71.0167 169.83 71.31C170.163 71.5967 170.43 71.9733 170.63 72.44C170.837 72.9067 170.94 73.4767 170.94 74.15V81H167.53V74.6C167.53 74.2733 167.457 74.01 167.31 73.81C167.17 73.6033 166.99 73.4533 166.77 73.36C166.55 73.26 166.32 73.21 166.08 73.21C165.853 73.21 165.627 73.2567 165.4 73.35C165.173 73.4433 164.983 73.5867 164.83 73.78C164.677 73.9733 164.6 74.22 164.6 74.52V81H161.2V74.47C161.2 74.1967 161.127 73.9667 160.98 73.78C160.84 73.5933 160.66 73.4533 160.44 73.36C160.227 73.26 160.003 73.21 159.77 73.21C159.543 73.21 159.313 73.26 159.08 73.36C158.853 73.4533 158.663 73.5967 158.51 73.79C158.363 73.9833 158.29 74.2267 158.29 74.52V81H154.89ZM177.344 70.66V81H174.094V70.66H177.344ZM177.354 66.54V69.5H174.084V66.54H177.354ZM184.886 81.2C184.166 81.2 183.463 81.08 182.776 80.84C182.089 80.6 181.503 80.2167 181.016 79.69C180.529 79.1633 180.216 78.4767 180.076 77.63H182.996C183.083 77.9833 183.239 78.2533 183.466 78.44C183.693 78.6267 183.936 78.7533 184.196 78.82C184.456 78.8867 184.679 78.92 184.866 78.92C185.359 78.92 185.759 78.85 186.066 78.71C186.373 78.57 186.526 78.3567 186.526 78.07C186.526 77.83 186.429 77.6433 186.236 77.51C186.049 77.37 185.723 77.26 185.256 77.18L183.576 76.87C182.629 76.69 181.863 76.36 181.276 75.88C180.696 75.3933 180.403 74.7067 180.396 73.82C180.389 73.1867 180.559 72.6167 180.906 72.11C181.253 71.6033 181.763 71.2033 182.436 70.91C183.109 70.61 183.936 70.46 184.916 70.46C186.256 70.46 187.323 70.7533 188.116 71.34C188.909 71.9267 189.309 72.7367 189.316 73.77H186.516C186.443 73.4167 186.253 73.15 185.946 72.97C185.646 72.7833 185.286 72.69 184.866 72.69C184.439 72.69 184.079 72.7633 183.786 72.91C183.499 73.05 183.356 73.2633 183.356 73.55C183.356 73.77 183.483 73.9467 183.736 74.08C183.989 74.2133 184.393 74.3333 184.946 74.44L186.456 74.75C187.076 74.9033 187.579 75.11 187.966 75.37C188.353 75.6233 188.649 75.9 188.856 76.2C189.069 76.5 189.216 76.8 189.296 77.1C189.376 77.3933 189.416 77.6533 189.416 77.88C189.416 78.5933 189.219 79.1967 188.826 79.69C188.433 80.1833 187.893 80.56 187.206 80.82C186.526 81.0733 185.753 81.2 184.886 81.2Z" fill="#514D03"/>
<path d="M192.481 66.54H195.891V78.17H201.921V81H192.471L192.481 66.54ZM208.618 81.2C208.172 81.2 207.718 81.1267 207.258 80.98C206.798 80.8333 206.375 80.62 205.988 80.34C205.602 80.0533 205.288 79.7067 205.048 79.3C204.815 78.8867 204.698 78.4133 204.698 77.88V70.66H208.108V77.42C208.108 77.8067 208.242 78.13 208.508 78.39C208.775 78.6433 209.158 78.77 209.658 78.77C210.138 78.77 210.518 78.6467 210.798 78.4C211.078 78.1467 211.218 77.8133 211.218 77.4V70.66H214.598V81H212.058L211.658 78.91C211.532 79.5567 211.298 80.0467 210.958 80.38C210.618 80.7067 210.235 80.9233 209.808 81.03C209.388 81.1433 208.992 81.2 208.618 81.2ZM221.902 81.2C221.182 81.2 220.479 81.08 219.792 80.84C219.106 80.6 218.519 80.2167 218.032 79.69C217.546 79.1633 217.232 78.4767 217.092 77.63H220.012C220.099 77.9833 220.256 78.2533 220.482 78.44C220.709 78.6267 220.952 78.7533 221.212 78.82C221.472 78.8867 221.696 78.92 221.882 78.92C222.376 78.92 222.776 78.85 223.082 78.71C223.389 78.57 223.542 78.3567 223.542 78.07C223.542 77.83 223.446 77.6433 223.252 77.51C223.066 77.37 222.739 77.26 222.272 77.18L220.592 76.87C219.646 76.69 218.879 76.36 218.292 75.88C217.712 75.3933 217.419 74.7067 217.412 73.82C217.406 73.1867 217.576 72.6167 217.922 72.11C218.269 71.6033 218.779 71.2033 219.452 70.91C220.126 70.61 220.952 70.46 221.932 70.46C223.272 70.46 224.339 70.7533 225.132 71.34C225.926 71.9267 226.326 72.7367 226.332 73.77H223.532C223.459 73.4167 223.269 73.15 222.962 72.97C222.662 72.7833 222.302 72.69 221.882 72.69C221.456 72.69 221.096 72.7633 220.802 72.91C220.516 73.05 220.372 73.2633 220.372 73.55C220.372 73.77 220.499 73.9467 220.752 74.08C221.006 74.2133 221.409 74.3333 221.962 74.44L223.472 74.75C224.092 74.9033 224.596 75.11 224.982 75.37C225.369 75.6233 225.666 75.9 225.872 76.2C226.086 76.5 226.232 76.8 226.312 77.1C226.392 77.3933 226.432 77.6533 226.432 77.88C226.432 78.5933 226.236 79.1967 225.842 79.69C225.449 80.1833 224.909 80.56 224.222 80.82C223.542 81.0733 222.769 81.2 221.902 81.2ZM229.138 81V66.14H232.528V72.14C232.688 71.92 232.884 71.6933 233.118 71.46C233.358 71.2267 233.658 71.03 234.018 70.87C234.378 70.71 234.831 70.63 235.378 70.63C236.031 70.63 236.631 70.76 237.178 71.02C237.724 71.28 238.161 71.66 238.488 72.16C238.821 72.66 238.988 73.2733 238.988 74V81H235.578V74.47C235.578 74.0633 235.428 73.7567 235.128 73.55C234.828 73.3367 234.484 73.23 234.098 73.23C233.844 73.23 233.598 73.28 233.358 73.38C233.118 73.48 232.921 73.6267 232.768 73.82C232.614 74.0133 232.538 74.25 232.538 74.53V81H229.138Z" fill="#FFA500"/>
</svg>

