<svg width="699" height="696" viewBox="0 0 699 696" fill="none" xmlns="http://www.w3.org/2000/svg">
<path fill-rule="evenodd" clip-rule="evenodd" d="M349.5 699C542.523 699 699 542.523 699 349.5C699 156.476 542.523 0 349.5 0C156.476 0 0 156.476 0 349.5C0 542.523 156.476 699 349.5 699ZM349.5 691C538.105 691 691 538.105 691 349.5C691 160.895 538.105 8 349.5 8C160.895 8 8 160.895 8 349.5C8 538.105 160.895 691 349.5 691Z" fill="#C0B6F2"/>
<path fill-rule="evenodd" clip-rule="evenodd" d="M349.5 638C508.834 638 638 508.834 638 349.5C638 190.166 508.834 61 349.5 61C190.166 61 61 190.166 61 349.5C61 508.834 190.166 638 349.5 638ZM349.5 631.396C505.187 631.396 631.396 505.187 631.396 349.5C631.396 193.813 505.187 67.6037 349.5 67.6037C193.813 67.6037 67.6036 193.813 67.6036 349.5C67.6036 505.187 193.813 631.396 349.5 631.396Z" fill="#C0B6F2"/>
<path fill-rule="evenodd" clip-rule="evenodd" d="M349 684C534.015 684 684 534.015 684 349C684 163.985 534.015 14 349 14C163.985 14 14 163.985 14 349C14 534.015 163.985 684 349 684ZM349 676.332C529.78 676.332 676.332 529.78 676.332 349C676.332 168.22 529.78 21.6681 349 21.6681C168.22 21.6681 21.6681 168.22 21.6681 349C21.6681 529.78 168.22 676.332 349 676.332Z" fill="#C0B6F2"/>
<path fill-rule="evenodd" clip-rule="evenodd" d="M349.087 625.618C501.811 625.618 625.618 501.811 625.618 349.087C625.618 196.364 501.811 72.5565 349.087 72.5565C196.363 72.5565 72.5564 196.364 72.5564 349.087C72.5564 501.811 196.363 625.618 349.087 625.618ZM349.087 619.288C498.315 619.288 619.288 498.315 619.288 349.087C619.288 199.859 498.315 78.8862 349.087 78.8862C199.859 78.8862 78.8861 199.859 78.8861 349.087C78.8861 498.315 199.859 619.288 349.087 619.288Z" fill="#C0B6F2"/>
<path fill-rule="evenodd" clip-rule="evenodd" d="M349.5 669C525.955 669 669 525.955 669 349.5C669 173.045 525.955 30 349.5 30C173.045 30 30 173.045 30 349.5C30 525.955 173.045 669 349.5 669ZM349.5 661.687C521.916 661.687 661.687 521.916 661.687 349.5C661.687 177.084 521.916 37.3133 349.5 37.3133C177.084 37.3133 37.3134 177.084 37.3134 349.5C37.3134 521.916 177.084 661.687 349.5 661.687Z" fill="#C0B6F2"/>
<path fill-rule="evenodd" clip-rule="evenodd" d="M349.5 613.236C495.157 613.236 613.236 495.157 613.236 349.5C613.236 203.843 495.157 85.764 349.5 85.764C203.843 85.764 85.7639 203.843 85.7639 349.5C85.7639 495.157 203.843 613.236 349.5 613.236ZM349.5 607.199C491.823 607.199 607.199 491.823 607.199 349.5C607.199 207.177 491.823 91.8008 349.5 91.8008C207.177 91.8008 91.8008 207.177 91.8008 349.5C91.8008 491.823 207.177 607.199 349.5 607.199Z" fill="#C0B6F2"/>
<path fill-rule="evenodd" clip-rule="evenodd" d="M349.5 652C517.118 652 653 516.118 653 348.5C653 180.882 517.118 45 349.5 45C181.882 45 46 180.882 46 348.5C46 516.118 181.882 652 349.5 652ZM349.5 645.053C513.282 645.053 646.053 512.282 646.053 348.5C646.053 184.718 513.282 51.9471 349.5 51.9471C185.718 51.9471 52.9472 184.718 52.9472 348.5C52.9472 512.282 185.718 645.053 349.5 645.053Z" fill="#C0B6F2"/>
<path fill-rule="evenodd" clip-rule="evenodd" d="M349.5 599.203C487.863 599.203 600.029 487.038 600.029 348.675C600.029 210.311 487.863 98.1459 349.5 98.1459C211.137 98.1459 98.9714 210.311 98.9714 348.675C98.9714 487.038 211.137 599.203 349.5 599.203ZM349.5 593.469C484.696 593.469 594.294 483.871 594.294 348.675C594.294 213.479 484.696 103.88 349.5 103.88C214.304 103.88 104.706 213.479 104.706 348.675C104.706 483.871 214.304 593.469 349.5 593.469Z" fill="#C0B6F2"/>
</svg>
