<svg width="363" height="151" viewBox="0 0 363 151" fill="none" xmlns="http://www.w3.org/2000/svg">
<rect x="0.815338" y="0.998596" width="362" height="150" fill="#0F0F0F"/>
<circle cx="219.356" cy="72.8697" r="3.9628" fill="#F69595"/>
<circle cx="227.085" cy="79.1276" r="3.9628" fill="#9598F6"/>
<circle cx="235.815" cy="72.8697" r="3.9628" fill="#95F6C7"/>
<path d="M132.234 70.9005H129.185V79.1925H127.134V70.9005H124.127V69.2394H132.234V70.9005ZM136.418 79.1925C136.326 79.0148 136.26 78.7937 136.219 78.5294C135.741 79.0626 135.119 79.3292 134.353 79.3292C133.629 79.3292 133.027 79.1196 132.548 78.7003C132.074 78.281 131.837 77.7524 131.837 77.1144C131.837 76.3305 132.127 75.729 132.706 75.3097C133.289 74.8904 134.13 74.6785 135.228 74.674H136.137V74.2501C136.137 73.9083 136.048 73.6349 135.871 73.4298C135.698 73.2247 135.422 73.1222 135.044 73.1222C134.711 73.1222 134.449 73.2019 134.257 73.3615C134.071 73.521 133.977 73.7397 133.977 74.0177H132.002C132.002 73.5893 132.134 73.1928 132.398 72.8282C132.662 72.4637 133.036 72.1788 133.519 71.9738C134.002 71.7641 134.545 71.6593 135.146 71.6593C136.058 71.6593 136.78 71.8894 137.313 72.3497C137.851 72.8055 138.12 73.448 138.12 74.2775V77.4835C138.124 78.1853 138.222 78.7163 138.414 79.0763V79.1925H136.418ZM134.784 77.8185C135.075 77.8185 135.344 77.7547 135.59 77.6271C135.837 77.4949 136.019 77.3195 136.137 77.1007V75.8292H135.399C134.41 75.8292 133.884 76.171 133.82 76.8546L133.813 76.9708C133.813 77.2169 133.9 77.4197 134.073 77.5792C134.246 77.7387 134.483 77.8185 134.784 77.8185ZM143.643 77.1486C143.643 76.907 143.522 76.7179 143.281 76.5812C143.044 76.4399 142.661 76.3146 142.132 76.2052C140.373 75.8361 139.494 75.0887 139.494 73.963C139.494 73.3068 139.765 72.7599 140.307 72.3224C140.854 71.8803 141.567 71.6593 142.447 71.6593C143.386 71.6593 144.135 71.8803 144.696 72.3224C145.261 72.7644 145.544 73.3387 145.544 74.045H143.568C143.568 73.7625 143.477 73.5301 143.295 73.3478C143.112 73.1609 142.827 73.0675 142.44 73.0675C142.107 73.0675 141.85 73.1427 141.668 73.2931C141.485 73.4435 141.394 73.6349 141.394 73.8673C141.394 74.0861 141.497 74.2638 141.702 74.4005C141.911 74.5327 142.262 74.6489 142.754 74.7491C143.247 74.8448 143.661 74.9542 143.999 75.0773C145.042 75.4601 145.564 76.1232 145.564 77.0665C145.564 77.741 145.275 78.2879 144.696 78.7072C144.117 79.1219 143.37 79.3292 142.454 79.3292C141.834 79.3292 141.282 79.2198 140.799 79.0011C140.321 78.7778 139.945 78.4747 139.671 78.0919C139.398 77.7045 139.261 77.2876 139.261 76.8409H141.134C141.153 77.1919 141.282 77.4607 141.524 77.6476C141.766 77.8344 142.089 77.9279 142.495 77.9279C142.873 77.9279 143.158 77.8572 143.349 77.7159C143.545 77.5701 143.643 77.381 143.643 77.1486ZM149.529 76.2257L148.818 76.9366V79.1925H146.842V68.6925H148.818V74.5099L149.201 74.0177L151.094 71.796H153.466L150.794 74.879L153.699 79.1925H151.429L149.529 76.2257ZM165.019 70.9005H161.97V79.1925H159.92V70.9005H156.912V69.2394H165.019V70.9005ZM169.77 73.6486C169.501 73.6121 169.264 73.5939 169.059 73.5939C168.312 73.5939 167.822 73.8468 167.589 74.3527V79.1925H165.614V71.796H167.48L167.535 72.6779C167.931 71.9988 168.48 71.6593 169.182 71.6593C169.401 71.6593 169.606 71.6889 169.797 71.7482L169.77 73.6486ZM174.808 79.1925C174.717 79.0148 174.651 78.7937 174.61 78.5294C174.131 79.0626 173.509 79.3292 172.744 79.3292C172.019 79.3292 171.418 79.1196 170.939 78.7003C170.465 78.281 170.228 77.7524 170.228 77.1144C170.228 76.3305 170.518 75.729 171.096 75.3097C171.68 74.8904 172.52 74.6785 173.619 74.674H174.528V74.2501C174.528 73.9083 174.439 73.6349 174.261 73.4298C174.088 73.2247 173.812 73.1222 173.434 73.1222C173.101 73.1222 172.839 73.2019 172.648 73.3615C172.461 73.521 172.368 73.7397 172.368 74.0177H170.392C170.392 73.5893 170.524 73.1928 170.789 72.8282C171.053 72.4637 171.427 72.1788 171.91 71.9738C172.393 71.7641 172.935 71.6593 173.537 71.6593C174.448 71.6593 175.17 71.8894 175.704 72.3497C176.241 72.8055 176.51 73.448 176.51 74.2775V77.4835C176.515 78.1853 176.613 78.7163 176.804 79.0763V79.1925H174.808ZM173.174 77.8185C173.466 77.8185 173.735 77.7547 173.981 77.6271C174.227 77.4949 174.409 77.3195 174.528 77.1007V75.8292H173.79C172.801 75.8292 172.274 76.171 172.211 76.8546L172.204 76.9708C172.204 77.2169 172.29 77.4197 172.463 77.5792C172.637 77.7387 172.874 77.8185 173.174 77.8185ZM181.104 77.7365C181.469 77.7365 181.765 77.6362 181.993 77.4357C182.221 77.2351 182.339 76.9685 182.348 76.6359H184.201C184.196 77.1372 184.059 77.5975 183.791 78.0167C183.522 78.4314 183.153 78.755 182.683 78.9874C182.218 79.2153 181.703 79.3292 181.138 79.3292C180.081 79.3292 179.247 78.9943 178.636 78.3243C178.026 77.6499 177.72 76.7202 177.72 75.5353V75.4054C177.72 74.2661 178.023 73.3569 178.629 72.6779C179.236 71.9988 180.067 71.6593 181.125 71.6593C182.05 71.6593 182.79 71.9236 183.346 72.4523C183.907 72.9764 184.192 73.6759 184.201 74.5509H182.348C182.339 74.1681 182.221 73.8582 181.993 73.6212C181.765 73.3797 181.464 73.2589 181.09 73.2589C180.63 73.2589 180.282 73.4275 180.045 73.7648C179.812 74.0975 179.696 74.6398 179.696 75.3917V75.5968C179.696 76.3579 179.812 76.9047 180.045 77.2374C180.277 77.5701 180.63 77.7365 181.104 77.7365ZM188.015 76.2257L187.304 76.9366V79.1925H185.329V68.6925H187.304V74.5099L187.687 74.0177L189.581 71.796H191.953L189.28 74.879L192.185 79.1925H189.916L188.015 76.2257ZM196.075 79.3292C194.99 79.3292 194.106 78.9965 193.422 78.3312C192.743 77.6658 192.404 76.7794 192.404 75.672V75.4806C192.404 74.7378 192.547 74.0747 192.835 73.4913C193.122 72.9034 193.527 72.4523 194.051 72.1378C194.58 71.8188 195.182 71.6593 195.856 71.6593C196.868 71.6593 197.663 71.9783 198.242 72.6163C198.825 73.2544 199.117 74.159 199.117 75.3302V76.1368H194.407C194.471 76.6199 194.662 77.0073 194.981 77.299C195.305 77.5906 195.712 77.7365 196.205 77.7365C196.966 77.7365 197.56 77.4607 197.989 76.9093L198.96 77.9962C198.663 78.4155 198.262 78.7436 197.756 78.9806C197.251 79.213 196.69 79.3292 196.075 79.3292ZM195.849 73.2589C195.457 73.2589 195.138 73.3911 194.892 73.6554C194.651 73.9197 194.496 74.298 194.427 74.7902H197.175V74.6329C197.166 74.1954 197.048 73.8582 196.82 73.6212C196.592 73.3797 196.268 73.2589 195.849 73.2589ZM204.401 73.6486C204.132 73.6121 203.895 73.5939 203.69 73.5939C202.943 73.5939 202.453 73.8468 202.22 74.3527V79.1925H200.245V71.796H202.111L202.166 72.6779C202.562 71.9988 203.111 71.6593 203.813 71.6593C204.032 71.6593 204.237 71.6889 204.428 71.7482L204.401 73.6486Z" fill="white"/>
</svg>
